# xmcd
#
# Track frame offsets: 
#        150
#        21465
#        43545
#        63721
#        86285
#        106364
#        120500
#        142796
#        160785
#        176683
#        192205
#        202162
#        219646
#        230933
#
# Disc length: 3351 seconds
#
# Revision: 0
# Processed by: cddbd v1.5.2PL0 Copyright (c) Steve Scherf et al.
# Submitted via: ExactAudioCopy v0.95b4
#
DISCID=c90d150e
DTITLE=The Staple Singers - Stax Profiles: The Staple Singers
DYEAR=2006
DGENRE=Soul
TTITLE0=I'll Take You There
TTITLE1=Respect Yourself
TTITLE2=If You're Ready (Come Go With Me)
TTITLE3=Be What You Are
TTITLE4=Are You Sure
TTITLE5=Heavy Makes You Happy (Sha-Na-Boom-Boom)
TTITLE6=Oh La De Da
TTITLE7=Touch A Hand, Make A Friend
TTITLE8=You've Got To Earn It
TTITLE9=Everyday People
TTITLE10=My Main Man
TTITLE11=City In The Sky
TTITLE12=Long Walk To D.C.
TTITLE13=The Weight
EXTD=
EXTT0=
EXTT1=
EXTT2=
EXTT3=
EXTT4=
EXTT5=
EXTT6=
EXTT7=
EXTT8=
EXTT9=
EXTT10=
EXTT11=
EXTT12=
EXTT13=
PLAYORDER=
